<?xml version="1.0" encoding="UTF-8"?>
<svg version="1.1" xmlns="http://www.w3.org/2000/svg" width="4019" height="3722">
<path d="M0 0 C1.34789101 0.00007049 1.34789101 0.00007049 2.72301215 0.00014241 C89.13280181 0.00467156 175.54259135 0.01102111 564.6875 0.0625 C564.81737006 48.45808306 564.94491633 96.85367183 565.06968227 145.24926833 C565.08468807 151.06917372 565.09971158 156.88907906 565.11474609 162.70898438 C565.11773671 163.86677585 565.12072732 165.02456733 565.12380856 166.21744339 C565.16537625 182.29595057 565.20788461 198.37445501 565.25119197 214.4529576 C565.32612491 242.27331983 565.39909297 270.09368653 565.46875 297.9140625 C565.47286243 299.55400427 565.47286243 299.55400427 565.47705793 301.22707617 C565.65424358 372.01462912 565.73704159 442.80173922 565.7130127 513.58950806 C565.71276358 514.32563593 565.71251447 515.0617638 565.7122578 515.82019858 C565.70716175 530.23430149 565.69682666 544.64839852 565.6875 559.0625 C539.6175 559.0625 513.5475 559.0625 486.6875 559.0625 C486.6875 559.7225 486.6875 560.3825 486.6875 561.0625 C246.4475 561.0625 6.2075 561.0625 -241.3125 561.0625 C-240.8175 635.8075 -240.8175 635.8075 -240.3125 712.0625 C-240.2198854 751.25765259 -240.13076052 790.45210068 -240.11591911 829.64725494 C-240.11064724 841.82677042 -240.10283034 854.00628221 -240.09299088 866.18579483 C-240.09235224 866.97781713 -240.09171361 867.76983943 -240.09105562 868.5858624 C-240.08778515 872.63138142 -240.08448425 876.67690042 -240.08117336 880.72241941 C-240.05765762 909.53711856 -240.03835879 938.35181918 -240.02157402 967.16652298 C-240.00483916 995.87922954 -239.98626258 1024.59193401 -239.96544075 1053.30463791 C-239.96410979 1055.14270953 -239.96277887 1056.98078115 -239.961448 1058.81885277 C-239.9560875 1066.21734108 -239.95071277 1073.61582937 -239.94532111 1081.01431765 C-239.93024825 1101.70110566 -239.915469 1122.38789387 -239.90090275 1143.07468224 C-239.90023961 1144.01623303 -239.89957647 1144.95778382 -239.89889324 1145.92786646 C-239.86684056 1191.47811391 -239.83822679 1237.02836344 -239.80981445 1282.57861328 C-239.77164081 1343.77768356 -239.73095651 1404.97675134 -239.68688071 1466.17581766 C-239.68343768 1470.9574531 -239.67999949 1475.73908853 -239.6765608 1480.52072397 C-239.67175248 1487.20607831 -239.66694355 1493.89143265 -239.66213406 1500.57678699 C-239.6593899 1504.39140291 -239.6566462 1508.20601882 -239.65390247 1512.02063474 C-239.65184666 1514.87846884 -239.64979005 1517.73630295 -239.64773339 1520.59413705 C-239.58083835 1613.567324 -239.51682782 1706.54051325 -239.3013401 2504.34022141 C-239.30150037 2505.23358103 -239.30166064 2506.12694065 -239.30182577 2507.04737177 C-239.30496942 2524.38574794 -239.30880674 2541.72412393 -239.3125 2559.0625 C-270.9925 2559.0625 -302.6725 2559.0625 -335.3125 2559.0625 C-335.3125 2560.0525 -335.3125 2561.0425 -335.3125 2562.0625 C-479.5225 2562.0625 -623.7325 2562.0625 -772.3125 2562.0625 C-772.5756763 2363.17641092 -772.5756763 2363.17641092 -772.66004448 2293.17414522 C-772.66562416 2288.54562775 -772.67120744 2283.91711028 -772.67679425 2279.28859282 C-772.71963596 2243.7810921 -772.76178298 2208.27359059 -772.80345565 2172.76608849 C-772.80946854 2167.64289537 -772.81549059 2162.51970227 -772.82152146 2157.39650917 C-772.91785293 2075.55601332 -773.00884346 1993.71551248 -773.08984375 1911.875 C-773.09052135 1911.19038212 -773.09119896 1910.50576425 -773.09189709 1909.80040038 C-773.16207437 1838.84889414 -773.22551398 1767.89738093 -773.37890625 1333.75 C-773.37898427 1332.58911621 -773.37898427 1332.58911621 -773.37906387 1331.40478023 C-773.38413471 1255.39680694 -773.3839155 1179.38883376 -773.37549336 1046.8598579 C-773.37510718 1041.56120418 -773.37472952 1036.26255047 -773.37435675 1030.96389675 C-773.37129469 987.46005522 -773.36777385 943.95621373 -773.36367548 900.45237228 C-773.36341615 897.69935599 -773.36315837 894.9463397 -773.36290228 892.1933234 C-773.36277966 890.87608153 -773.36265704 889.55883967 -773.36253071 888.20168138 C-773.36242459 887.05928967 -773.36231847 885.91689796 -773.36220914 884.73988833 C-773.352013 777.18075762 -773.33123127 669.62162987 -773.3125 562.0625 C-1065.3625 562.0625 -1357.4125 562.0625 -1658.3125 562.0625 C-1658.3125 690.4325 -1658.3125 818.8025 -1658.3125 951.0625 C-1438.8625 951.0625 -1219.4125 951.0625 -993.3125 951.0625 C-993.3125 1115.0725 -993.3125 1279.0825 -993.3125 1448.0625 C-1212.7625 1448.0625 -1432.2125 1448.0625 -1658.3125 1448.0625 C-1658.3125 1816.3425 -1658.3125 2184.6225 -1658.3125 2564.0625 C-1880.4025 2564.0625 -2102.4925 2564.0625 -2331.3125 2564.0625 C-2331.4290371 2342.1535533 -2331.4290371 2342.1535533 -2331.46125688 2280.44570863 C-2331.46313583 2276.84718077 -2331.46501478 2273.24865291 -2331.46689394 2269.65012506 C-2331.50538829 2195.93439834 -2331.54362795 2122.21867149 -2331.59744484 2017.54170797 C-2331.59851159 2015.4655135 -2331.5995784 2013.38931904 -2331.60064522 2011.31312457 C-2331.63093431 1952.36607346 -2331.66116732 1893.41902233 -2331.69132619 1834.47197115 C-2331.69244488 1832.28543465 -2331.69356357 1830.09889815 -2331.69468227 1827.91236165 C-2331.69505175 1827.19018725 -2331.69542124 1826.46801284 -2331.69580192 1825.72395437 C-2331.7096843 1798.59052316 -2331.72357935 1771.45709196 -2331.73748201 1744.32366076 C-2331.73899171 1741.3772034 -2331.74050126 1738.43074605 -2331.74201068 1735.4842887 C-2331.77909582 1663.09265266 -2331.8164814 1590.70101679 -2331.87505946 1479.55476771 C-2331.91217788 1409.19774163 -2331.94922829 1338.84071552 -2332.3125 563.0625 C-2332.31292843 561.97010658 -2332.31335685 560.87771317 -2332.31379826 559.75221692 C-2332.35001846 467.35161309 -2332.3836585 374.95100921 -2332.39809561 273.09054899 C-2332.39820166 272.31571786 -2332.39830772 271.54088672 -2332.39841699 270.74257585 C-2332.39936601 263.79882421 -2332.40031058 256.85507256 -2332.40122128 249.91132091 C-2332.40416227 227.6500116 -2332.40965585 205.38870401 -2332.41664124 183.12739563 C-2332.42420126 159.02800574 -2332.42840545 134.92861874 -2332.42737508 110.82922733 C-2332.42689997 97.88505272 -2332.42897222 84.94088516 -2332.4350128 71.99671191 C-2332.43866021 63.58763389 -2332.43875681 55.17856106 -2332.43572976 46.76948279 C-2332.43411834 42.03518105 -2332.43409657 37.30089382 -2332.43843943 32.56659347 C-2332.4423153 28.30955387 -2332.44171693 24.05254107 -2332.43729364 19.79550222 C-2332.43651883 18.26443161 -2332.43745746 16.73335905 -2332.44022227 15.20229074 C-2332.44369831 13.14779671 -2332.44053881 11.09329454 -2332.43694448 9.03880072 C-2332.43705317 7.89934959 -2332.43716185 6.75989846 -2332.43727383 5.58591852 C-2332.3125 3.0625 -2332.3125 3.0625 -2331.3125 2.0625 C-2329.3166157 1.95391638 -2327.3168323 1.91698121 -2325.31802446 1.90641075 C-2323.34488749 1.89241425 -2323.34488749 1.89241425 -2321.33188916 1.87813499 C-2319.84904358 1.87272305 -2318.36619761 1.86741491 -2316.88335133 1.86219883 C-2315.3175915 1.85311517 -2313.75183406 1.84361215 -2312.1860791 1.83372492 C-2307.83780697 1.80764805 -2303.48952555 1.78804188 -2299.14121528 1.76957426 C-2295.38672698 1.75288256 -2291.632261 1.73265514 -2287.87779034 1.71242519 C-2276.3710795 1.65049477 -2264.86433501 1.59862793 -2253.35756515 1.54907565 C-2246.57184458 1.51979403 -2239.78613449 1.48841783 -2233.00042403 1.45689404 C-2138.95510972 1.02300998 -2044.90946239 0.89142928 -1881.00443338 0.76697702 C-1856.99705912 0.75154657 -1832.98968695 0.73412104 -1808.98231506 0.71537781 C-1807.2702232 0.71404351 -1805.55813133 0.71270951 -1803.84603947 0.71137582 C-1796.93905042 0.70599419 -1790.03206138 0.70060678 -1783.12507235 0.69521133 C-1713.00180295 0.64046654 -1642.87853001 0.59221895 -1572.75525409 0.54668789 C-1565.1836977 0.54177116 -1557.61214132 0.53684972 -1550.04058494 0.53192335 C-1548.14228648 0.53068825 -1546.24398803 0.52945349 -1544.34568957 0.52821907 C-1514.81268495 0.50900971 -1485.27968097 0.48898225 -1455.7466774 0.46821976 C-1454.80075452 0.46755483 -1453.85483164 0.46688991 -1452.88024443 0.46620483 C-1444.26452361 0.46014699 -1435.6488028 0.45407837 -1427.033082 0.4480015 C-1330.002063 0.37956517 -1232.97104223 0.31387943 0 0 Z " fill="#174A35" transform="translate(3056.3125,578.9375)"/>
<path d="M0 0 C222.09 0 444.18 0 673 0 C673 128.37 673 256.74 673 389 C892.45 389 1111.9 389 1338 389 C1338 553.01 1338 717.02 1338 886 C1118.55 886 899.1 886 673 886 C673 1254.28 673 1622.56 673 2002 C450.91 2002 228.82 2002 0 2002 C0 1341.34 0 680.68 0 0 Z " fill="#D9D9D9" transform="translate(725,1141)"/>
<path d="M0 0 C0.66 0 1.32 0 2 0 C2 128.37 2 256.74 2 389 C221.45 389 440.9 389 667 389 C667 553.01 667 717.02 667 886 C447.55 886 228.1 886 2 886 C2 1254.28 2 1622.56 2 2002 C-220.09 2002 -442.18 2002 -671 2002 C-671 1341.67 -671 681.34 -671 1 C-670.67 1 -670.34 1 -670 1 C-670 661 -670 1321 -670 2001 C-448.57 2001 -227.14 2001 1 2001 C1 1632.39 1 1263.78 1 884 C220.12 884 439.24 884 665 884 C665 721.31 665 558.62 665 391 C445.55 391 226.1 391 0 391 C0 261.97 0 132.94 0 0 Z " fill="#FCFCFC" transform="translate(1396,1141)"/>
</svg>
